<mxfile host="app.diagrams.net" agent="Mozilla/5.0 (Windows NT 10.0; Win64; x64) AppleWebKit/537.36 (KHTML, like Gecko) Chrome/124.0.0.0 Safari/537.36 SLBrowser/9.0.5.8121 SLBChan/33 SLBVPV/64-bit" version="24.7.8">
  <diagram name="第 1 页" id="UHSj6LI4vDTEhAFoRxYJ">
    <mxGraphModel dx="2117" dy="541" grid="1" gridSize="10" guides="1" tooltips="1" connect="1" arrows="1" fold="1" page="1" pageScale="1" pageWidth="827" pageHeight="1169" math="0" shadow="0">
      <root>
        <mxCell id="0" />
        <mxCell id="1" parent="0" />
        <mxCell id="KDNJ6NSY3MVF0tdbOiCU-9" value="" style="group" vertex="1" connectable="0" parent="1">
          <mxGeometry x="70" y="370" width="710" height="100" as="geometry" />
        </mxCell>
        <mxCell id="KDNJ6NSY3MVF0tdbOiCU-5" value="评级数据库" style="shape=cylinder3;whiteSpace=wrap;html=1;boundedLbl=1;backgroundOutline=1;size=15;" vertex="1" parent="KDNJ6NSY3MVF0tdbOiCU-9">
          <mxGeometry x="560" y="15" width="150" height="70" as="geometry" />
        </mxCell>
        <mxCell id="KDNJ6NSY3MVF0tdbOiCU-6" value="" style="group" vertex="1" connectable="0" parent="KDNJ6NSY3MVF0tdbOiCU-9">
          <mxGeometry width="470" height="100" as="geometry" />
        </mxCell>
        <mxCell id="KDNJ6NSY3MVF0tdbOiCU-1" value="&amp;nbsp; &amp;nbsp; &amp;nbsp; &amp;nbsp; 评级批量" style="rounded=1;whiteSpace=wrap;html=1;align=left;" vertex="1" parent="KDNJ6NSY3MVF0tdbOiCU-6">
          <mxGeometry width="470" height="100" as="geometry" />
        </mxCell>
        <mxCell id="KDNJ6NSY3MVF0tdbOiCU-3" value="鲁班调度工具" style="rounded=1;whiteSpace=wrap;html=1;" vertex="1" parent="KDNJ6NSY3MVF0tdbOiCU-6">
          <mxGeometry x="110" y="20" width="120" height="60" as="geometry" />
        </mxCell>
        <mxCell id="KDNJ6NSY3MVF0tdbOiCU-4" value="评级批处理" style="rounded=1;whiteSpace=wrap;html=1;" vertex="1" parent="KDNJ6NSY3MVF0tdbOiCU-6">
          <mxGeometry x="300" y="20" width="120" height="60" as="geometry" />
        </mxCell>
        <mxCell id="KDNJ6NSY3MVF0tdbOiCU-7" value="" style="endArrow=classic;html=1;rounded=0;exitX=1;exitY=0.5;exitDx=0;exitDy=0;" edge="1" parent="KDNJ6NSY3MVF0tdbOiCU-9" source="KDNJ6NSY3MVF0tdbOiCU-1" target="KDNJ6NSY3MVF0tdbOiCU-5">
          <mxGeometry width="50" height="50" relative="1" as="geometry">
            <mxPoint x="320" y="240" as="sourcePoint" />
            <mxPoint x="370" y="190" as="targetPoint" />
          </mxGeometry>
        </mxCell>
        <mxCell id="KDNJ6NSY3MVF0tdbOiCU-10" value="" style="group" vertex="1" connectable="0" parent="1">
          <mxGeometry x="70" y="560" width="710" height="100" as="geometry" />
        </mxCell>
        <mxCell id="KDNJ6NSY3MVF0tdbOiCU-11" value="评级数据库" style="shape=cylinder3;whiteSpace=wrap;html=1;boundedLbl=1;backgroundOutline=1;size=15;" vertex="1" parent="KDNJ6NSY3MVF0tdbOiCU-10">
          <mxGeometry x="560" y="15" width="150" height="70" as="geometry" />
        </mxCell>
        <mxCell id="KDNJ6NSY3MVF0tdbOiCU-12" value="" style="group" vertex="1" connectable="0" parent="KDNJ6NSY3MVF0tdbOiCU-10">
          <mxGeometry width="470" height="100" as="geometry" />
        </mxCell>
        <mxCell id="KDNJ6NSY3MVF0tdbOiCU-13" value="&amp;nbsp; &amp;nbsp; &amp;nbsp; &amp;nbsp; 合同批量" style="rounded=1;whiteSpace=wrap;html=1;align=left;" vertex="1" parent="KDNJ6NSY3MVF0tdbOiCU-12">
          <mxGeometry width="470" height="100" as="geometry" />
        </mxCell>
        <mxCell id="KDNJ6NSY3MVF0tdbOiCU-14" value="鲁班调度工具" style="rounded=1;whiteSpace=wrap;html=1;" vertex="1" parent="KDNJ6NSY3MVF0tdbOiCU-12">
          <mxGeometry x="110" y="20" width="120" height="60" as="geometry" />
        </mxCell>
        <mxCell id="KDNJ6NSY3MVF0tdbOiCU-15" value="评级批处理" style="rounded=1;whiteSpace=wrap;html=1;" vertex="1" parent="KDNJ6NSY3MVF0tdbOiCU-12">
          <mxGeometry x="300" y="20" width="120" height="60" as="geometry" />
        </mxCell>
        <mxCell id="KDNJ6NSY3MVF0tdbOiCU-16" value="" style="endArrow=classic;html=1;rounded=0;exitX=1;exitY=0.5;exitDx=0;exitDy=0;" edge="1" parent="KDNJ6NSY3MVF0tdbOiCU-10" source="KDNJ6NSY3MVF0tdbOiCU-13" target="KDNJ6NSY3MVF0tdbOiCU-11">
          <mxGeometry width="50" height="50" relative="1" as="geometry">
            <mxPoint x="320" y="240" as="sourcePoint" />
            <mxPoint x="370" y="190" as="targetPoint" />
          </mxGeometry>
        </mxCell>
        <mxCell id="KDNJ6NSY3MVF0tdbOiCU-17" value="" style="rounded=1;whiteSpace=wrap;html=1;" vertex="1" parent="1">
          <mxGeometry x="-300" y="310" width="120" height="420" as="geometry" />
        </mxCell>
        <mxCell id="KDNJ6NSY3MVF0tdbOiCU-18" value="对公信贷计算区" style="shape=process;whiteSpace=wrap;html=1;backgroundOutline=1;" vertex="1" parent="1">
          <mxGeometry x="-300" y="360" width="120" height="60" as="geometry" />
        </mxCell>
        <mxCell id="KDNJ6NSY3MVF0tdbOiCU-19" value="大数据平台" style="text;html=1;align=center;verticalAlign=middle;resizable=0;points=[];autosize=1;strokeColor=none;fillColor=none;" vertex="1" parent="1">
          <mxGeometry x="-280" y="738" width="80" height="30" as="geometry" />
        </mxCell>
        <mxCell id="KDNJ6NSY3MVF0tdbOiCU-20" value="hive数据库" style="rounded=1;whiteSpace=wrap;html=1;" vertex="1" parent="1">
          <mxGeometry x="-280" y="450" width="80" height="40" as="geometry" />
        </mxCell>
        <mxCell id="KDNJ6NSY3MVF0tdbOiCU-21" value="卸数传输工具" style="rounded=1;whiteSpace=wrap;html=1;" vertex="1" parent="1">
          <mxGeometry x="-280" y="565" width="80" height="40" as="geometry" />
        </mxCell>
        <mxCell id="KDNJ6NSY3MVF0tdbOiCU-22" value="批处理脚本" style="rounded=1;whiteSpace=wrap;html=1;" vertex="1" parent="1">
          <mxGeometry x="-280" y="510" width="80" height="40" as="geometry" />
        </mxCell>
        <mxCell id="KDNJ6NSY3MVF0tdbOiCU-23" value="" style="shape=flexArrow;endArrow=classic;html=1;rounded=0;endWidth=47;endSize=8.27;" edge="1" parent="1" source="KDNJ6NSY3MVF0tdbOiCU-17">
          <mxGeometry width="50" height="50" relative="1" as="geometry">
            <mxPoint x="-10" y="520" as="sourcePoint" />
            <mxPoint x="60" y="520" as="targetPoint" />
            <Array as="points">
              <mxPoint x="-110" y="520" />
              <mxPoint x="-50" y="520" />
            </Array>
          </mxGeometry>
        </mxCell>
        <mxCell id="KDNJ6NSY3MVF0tdbOiCU-24" value="数据同步" style="text;html=1;align=center;verticalAlign=middle;resizable=0;points=[];autosize=1;strokeColor=none;fillColor=none;" vertex="1" parent="1">
          <mxGeometry x="-90" y="470" width="70" height="30" as="geometry" />
        </mxCell>
        <mxCell id="KDNJ6NSY3MVF0tdbOiCU-25" value="山景调度" style="ellipse;whiteSpace=wrap;html=1;" vertex="1" parent="1">
          <mxGeometry x="-280" y="630" width="80" height="60" as="geometry" />
        </mxCell>
      </root>
    </mxGraphModel>
  </diagram>
</mxfile>
